<?xml version="1.0" standalone="no"?>
<!DOCTYPE svg PUBLIC "-//W3C//DTD SVG 20010904//EN"
 "http://www.w3.org/TR/2001/REC-SVG-20010904/DTD/svg10.dtd">
<svg version="1.0" xmlns="http://www.w3.org/2000/svg"
 width="668.000000pt" height="440.000000pt" viewBox="0 0 668.000000 440.000000"
 preserveAspectRatio="xMidYMid meet">

<g transform="translate(0.000000,440.000000) scale(0.100000,-0.100000)"
fill="#000000" stroke="none">
<path d="M1380 3591 c0 -32 -1 -35 -12 -48 -8 -10 -6 -13 5 -13 24 0 39 62 17
75 -5 3 -10 -3 -10 -14z"/>
<path d="M1422 3598 c-27 -27 -6 -68 35 -68 16 0 24 7 29 25 11 43 -34 73 -64
43z m46 -30 c-2 -13 -10 -23 -18 -23 -8 0 -16 10 -18 23 -3 17 2 22 18 22 16
0 21 -5 18 -22z"/>
<path d="M1504 3596 c-3 -8 -4 -25 -2 -38 2 -18 9 -23 33 -23 28 0 30 3 30 35
0 31 -3 35 -28 38 -17 2 -29 -2 -33 -12z m43 -12 c-3 -3 -12 -4 -19 -1 -8 3
-5 6 6 6 11 1 17 -2 13 -5z m3 -28 c0 -11 -19 -15 -25 -6 -3 5 1 10 9 10 9 0
16 -2 16 -4z"/>
<path d="M1592 3598 c-29 -29 -2 -72 40 -66 42 6 32 78 -11 78 -9 0 -22 -5
-29 -12z m46 -30 c-4 -27 -23 -34 -32 -13 -8 21 1 35 20 35 10 0 14 -8 12 -22z"/>
<path d="M1680 3571 c0 -23 5 -41 10 -41 6 0 10 5 10 12 0 9 3 9 12 0 20 -20
25 -14 24 26 -1 33 -4 37 -28 40 -27 3 -28 1 -28 -37z m40 15 c0 -3 -4 -8 -10
-11 -5 -3 -10 -1 -10 4 0 6 5 11 10 11 6 0 10 -2 10 -4z"/>
<path d="M1760 3570 c0 -39 1 -41 28 -38 24 3 27 7 27 38 0 31 -3 35 -27 38
-27 3 -28 1 -28 -38z m35 20 c3 -5 -1 -10 -10 -10 -9 0 -13 5 -10 10 3 6 8 10
10 10 2 0 7 -4 10 -10z m5 -40 c0 -5 -4 -10 -10 -10 -5 0 -10 5 -10 10 0 6 5
10 10 10 6 0 10 -4 10 -10z"/>
<path d="M1837 3590 c-6 -24 2 -60 14 -60 12 0 12 67 0 74 -5 3 -11 -3 -14
-14z"/>
<path d="M1870 3600 c0 -5 5 -10 10 -10 6 0 10 -13 10 -30 0 -16 5 -30 10 -30
6 0 10 14 10 30 0 17 5 30 10 30 6 0 10 5 10 10 0 6 -13 10 -30 10 -16 0 -30
-4 -30 -10z"/>
<path d="M4610 3551 c0 -11 4 -22 9 -25 4 -3 6 6 3 19 -5 30 -12 33 -12 6z"/>
<path d="M4680 3550 c-8 -5 -10 -10 -5 -10 6 0 17 5 25 10 8 5 11 10 5 10 -5
0 -17 -5 -25 -10z"/>
<path d="M1447 3504 c-14 -14 -7 -40 12 -40 12 0 18 7 17 20 -1 20 -17 31 -29
20z m23 -14 c0 -5 -2 -10 -4 -10 -3 0 -8 5 -11 10 -3 6 -1 10 4 10 6 0 11 -4
11 -10z"/>
<path d="M1508 3503 c7 -3 16 -2 19 1 4 3 -2 6 -13 5 -11 0 -14 -3 -6 -6z"/>
<path d="M1544 3495 c-3 -8 -4 -20 -1 -27 3 -7 6 -3 6 9 1 12 9 24 19 26 16 4
16 5 -1 6 -10 0 -20 -6 -23 -14z"/>
<path d="M1591 3483 c1 -23 2 -24 6 -5 2 12 9 22 15 22 5 0 8 -7 5 -15 -4 -8
-2 -17 2 -19 5 -3 8 4 7 17 -1 12 -9 23 -18 25 -14 3 -18 -3 -17 -25z"/>
<path d="M1641 3494 c-1 -26 24 -51 34 -34 4 6 1 9 -6 8 -7 -2 -16 8 -20 22
-6 22 -7 23 -8 4z"/>
<path d="M1728 3485 c2 -14 6 -25 7 -25 1 0 5 11 7 25 3 16 1 25 -7 25 -8 0
-10 -9 -7 -25z"/>
<path d="M1770 3486 c0 -14 4 -27 8 -30 5 -3 8 5 7 17 -1 12 3 25 9 29 7 5 4
8 -6 8 -12 0 -18 -8 -18 -24z"/>
<path d="M1817 3504 c-13 -13 -7 -32 12 -37 13 -3 18 1 17 16 -1 21 -17 32
-29 21z m23 -14 c0 -5 -4 -10 -10 -10 -5 0 -10 5 -10 10 0 6 5 10 10 10 6 0
10 -4 10 -10z"/>
<path d="M1702 3480 c0 -14 2 -19 5 -12 2 6 2 18 0 25 -3 6 -5 1 -5 -13z"/>
</g>
</svg>
