<svg xmlns="http://www.w3.org/2000/svg" version="1.1" xmlns:xlink="http://www.w3.org/1999/xlink" xmlns:svgjs="http://svgjs.dev/svgjs" width="1500" height="1500" viewBox="0 0 1500 1500"><rect width="1500" height="1500" fill="#ffffff"></rect><g transform="matrix(0.6666666666666666,0,0,0.6666666666666666,249.78425655976667,249.78425655976673)"><svg viewBox="0 0 343 343" data-background-color="#4da0e0" preserveAspectRatio="xMidYMid meet" height="1500" width="1500" xmlns="http://www.w3.org/2000/svg" xmlns:xlink="http://www.w3.org/1999/xlink"><g id="tight-bounds" transform="matrix(1,0,0,1,0.0740000000000407,0.07400000000001228)"><svg viewBox="0 0 342.85155851775386 342.85155851775386" height="342.85155851775386" width="342.85155851775386"><g><svg></svg></g><g><svg viewBox="0 0 342.85155851775386 342.85155851775386" height="342.85155851775386" width="342.85155851775386"><g><path d="M0 171.426c0-94.676 76.75-171.426 171.426-171.426 94.676 0 171.426 76.75 171.426 171.426 0 94.676-76.75 171.426-171.426 171.426-94.676 0-171.426-76.75-171.426-171.426zM171.426 338.749c92.41 0 167.324-74.913 167.323-167.323 0-92.41-74.913-167.324-167.323-167.324-92.41 0-167.324 74.913-167.324 167.324 0 92.41 74.913 167.324 167.324 167.323z" data-fill-palette-color="tertiary" fill="#000000" stroke="transparent"></path><ellipse rx="164.56874808852186" ry="164.56874808852186" cx="171.42577925887693" cy="171.42577925887693" fill="#000000" stroke="transparent" stroke-width="0" fill-opacity="1" data-fill-palette-color="tertiary"></ellipse></g><g transform="matrix(1,0,0,1,64.84655864529837,118.94188239890346)"><svg viewBox="0 0 213.1584412271571 104.96779371994694" height="104.96779371994694" width="213.1584412271571"><g><svg viewBox="0 0 213.1584412271571 104.96779371994694" height="104.96779371994694" width="213.1584412271571"><g><svg viewBox="0 0 213.1584412271571 104.96779371994694" height="104.96779371994694" width="213.1584412271571"><g transform="matrix(1,0,0,1,0,59.47950291182091)"><svg viewBox="0 0 213.1584412271571 45.488290808126024" height="45.488290808126024" width="213.1584412271571"><g id="textblocktransform"><svg viewBox="0 0 213.1584412271571 45.488290808126024" height="45.488290808126024" width="213.1584412271571" id="textblock"><g><svg viewBox="0 0 213.1584412271571 45.488290808126024" height="45.488290808126024" width="213.1584412271571"><g transform="matrix(1,0,0,1,0,0)"><svg width="213.1584412271571" viewBox="1.65 -39.55 205.93 43.949999999999996" height="45.488290808126024" data-palette-color="#ffffff"><path d="M17.55-2.95L17.55-2.95Q16.55 0.65 14.65 2.53 12.75 4.4 10.05 4.4L10.05 4.4Q6.65 4.4 4.48 1.2 2.3-2 1.65-7.9L1.65-7.9Q2.3-8.35 3.1-8.65 3.9-8.95 5.1-9.2L5.1-9.2Q5.8-3.35 6.93-0.98 8.05 1.4 10.15 1.4L10.15 1.4Q12.55 1.4 13.73-1.78 14.9-4.95 14.9-11.45L14.9-11.45Q14.9-16.85 14.53-22.6 14.15-28.35 13.3-35.4L13.3-35.4Q13.75-35.65 14.4-35.83 15.05-36 15.8-36.1L15.8-36.1Q16.25-36.15 16.75-36.18 17.25-36.2 17.85-36.15L17.85-36.15Q18.4-31.05 18.7-26.45 19-21.85 19-17.9L19-17.9Q19-12.65 18.65-9.13 18.3-5.6 17.55-2.95ZM38.7-36.65L38.7-36.65Q44.25-36.65 47.12-32.33 50-28 50-19.7L50-19.7Q50-16.1 49.22-12.58 48.45-9.05 47-6.3L47-6.3Q45.15-2.7 42.37-0.85 39.6 1 36.1 1L36.1 1Q30.95 1 27.77-4 24.6-9 24.6-16.95L24.6-16.95Q24.6-25.55 28.55-31.1 32.5-36.65 38.7-36.65ZM36.5-1.95L36.5-1.95Q40.85-1.95 43.37-6.68 45.9-11.4 45.9-18.85L45.9-18.85Q45.9-26.45 44-30.03 42.1-33.6 38.05-33.6L38.05-33.6Q33.95-33.6 31.35-29.13 28.75-24.65 28.75-17.55L28.75-17.55Q28.75-10.75 30.82-6.35 32.9-1.95 36.5-1.95ZM79.05-12.95L79.05-12.95Q79.05-7.15 74.52-3.08 70 1 63.5 1L63.5 1Q61.7 1 59.85 0.5 58 0 56.7-0.8L56.7-0.8Q56.3-9.15 56.15-14.78 56-20.4 56-26.9L56-26.9Q56-27.5 56-28.18 56-28.85 56-30.3L56-30.3Q55.95-32.1 55.95-33.1 55.95-34.1 55.95-35.05L55.95-35.05Q58-36 60.3-36.5 62.6-37 64.95-37L64.95-37Q70.45-37 73.5-34.85 76.55-32.7 76.55-28.85L76.55-28.85Q76.55-26.2 75.09-24.2 73.65-22.2 70.8-20.85L70.8-20.85Q74.84-20.25 76.95-18.23 79.05-16.2 79.05-12.95ZM72.55-28.4L72.55-28.4Q72.55-31.2 70.59-32.73 68.65-34.25 65-34.25L65-34.25Q63.85-34.25 62.65-34.08 61.45-33.9 60.25-33.6L60.25-33.6Q60-30.75 59.9-27.68 59.8-24.6 59.8-20.3L59.8-20.3Q66.4-20.9 69.47-22.83 72.55-24.75 72.55-28.4ZM60.1-2.65L60.1-2.65Q61-2.25 62-2.02 63-1.8 64-1.8L64-1.8Q68.5-1.8 71.75-4.85 75-7.9 75-12L75-12Q75-15.3 73.09-16.93 71.2-18.55 67.3-18.55L67.3-18.55Q65.59-18.55 63.5-18.18 61.4-17.8 59.8-17.2L59.8-17.2Q59.8-16.15 59.8-15.08 59.8-14 59.8-12.9L59.8-12.9Q59.8-9.9 59.87-7.48 59.95-5.05 60.1-2.65ZM97.34-36.65L97.34-36.65Q102.89-36.65 105.77-32.33 108.64-28 108.64-19.7L108.64-19.7Q108.64-16.1 107.87-12.58 107.09-9.05 105.64-6.3L105.64-6.3Q103.79-2.7 101.02-0.85 98.24 1 94.74 1L94.74 1Q89.59 1 86.42-4 83.24-9 83.24-16.95L83.24-16.95Q83.24-25.55 87.19-31.1 91.14-36.65 97.34-36.65ZM95.14-1.95L95.14-1.95Q99.49-1.95 102.02-6.68 104.54-11.4 104.54-18.85L104.54-18.85Q104.54-26.45 102.64-30.03 100.74-33.6 96.69-33.6L96.69-33.6Q92.59-33.6 89.99-29.13 87.39-24.65 87.39-17.55L87.39-17.55Q87.39-10.75 89.47-6.35 91.54-1.95 95.14-1.95ZM138.09-0.3L138.09-0.3Q137.59 0.15 136.54 0.68 135.49 1.2 134.59 1.4L134.59 1.4Q131.74-5 129.67-8.75 127.59-12.5 125.09-15.9L125.09-15.9Q123.89-15.35 122.42-14.88 120.94-14.4 119.24-13.95L119.24-13.95Q119.09-9.95 118.89-6.45 118.69-2.95 118.39 0.25L118.39 0.25Q117.64 0.35 116.67 0.28 115.69 0.2 115.09 0.05L115.09 0.05Q115.34-3.9 115.42-6.33 115.49-8.75 115.49-11.4L115.49-11.4Q115.49-19.45 115.24-24.15 114.99-28.85 114.29-35.15L114.29-35.15Q116.49-36.7 119.32-37.6 122.14-38.5 124.89-38.5L124.89-38.5Q129.84-38.5 132.72-35.9 135.59-33.3 135.59-28.95L135.59-28.95Q135.59-25.25 133.74-22.38 131.89-19.5 128.14-17.35L128.14-17.35Q130.54-14.5 133.04-10.23 135.54-5.95 138.09-0.3ZM118.64-34.2L118.64-34.2Q118.99-29.75 119.14-26.4 119.29-23.05 119.29-19.7L119.29-19.7Q119.29-18.95 119.29-18.23 119.29-17.5 119.29-16.75L119.29-16.75Q125.54-18.3 128.54-21.1 131.54-23.9 131.54-28.25L131.54-28.25Q131.54-31.8 129.72-33.73 127.89-35.65 124.49-35.65L124.49-35.65Q122.99-35.65 121.52-35.27 120.04-34.9 118.64-34.2ZM165.79-12.95L165.79-12.95Q165.79-7.15 161.26-3.08 156.74 1 150.24 1L150.24 1Q148.44 1 146.59 0.5 144.74 0 143.44-0.8L143.44-0.8Q143.04-9.15 142.89-14.78 142.74-20.4 142.74-26.9L142.74-26.9Q142.74-27.5 142.74-28.18 142.74-28.85 142.74-30.3L142.74-30.3Q142.69-32.1 142.69-33.1 142.69-34.1 142.69-35.05L142.69-35.05Q144.74-36 147.04-36.5 149.34-37 151.69-37L151.69-37Q157.19-37 160.24-34.85 163.29-32.7 163.29-28.85L163.29-28.85Q163.29-26.2 161.84-24.2 160.39-22.2 157.54-20.85L157.54-20.85Q161.59-20.25 163.69-18.23 165.79-16.2 165.79-12.95ZM159.29-28.4L159.29-28.4Q159.29-31.2 157.34-32.73 155.39-34.25 151.74-34.25L151.74-34.25Q150.59-34.25 149.39-34.08 148.19-33.9 146.99-33.6L146.99-33.6Q146.74-30.75 146.64-27.68 146.54-24.6 146.54-20.3L146.54-20.3Q153.14-20.9 156.21-22.83 159.29-24.75 159.29-28.4ZM146.84-2.65L146.84-2.65Q147.74-2.25 148.74-2.02 149.74-1.8 150.74-1.8L150.74-1.8Q155.24-1.8 158.49-4.85 161.74-7.9 161.74-12L161.74-12Q161.74-15.3 159.84-16.93 157.94-18.55 154.04-18.55L154.04-18.55Q152.34-18.55 150.24-18.18 148.14-17.8 146.54-17.2L146.54-17.2Q146.54-16.15 146.54-15.08 146.54-14 146.54-12.9L146.54-12.9Q146.54-9.9 146.61-7.48 146.69-5.05 146.84-2.65ZM175.59-24.35L175.59-24.35Q175.59-13.15 175.51-8.53 175.44-3.9 175.24 1L175.24 1Q174.74 1.15 173.84 1.25 172.94 1.35 171.94 1.4L171.94 1.4Q172.04-8.55 171.84-17.25 171.64-25.95 171.09-33.35L171.09-33.35Q171.69-33.7 172.36-33.85 173.04-34 173.74-34L173.74-34Q174.14-34 174.51-33.98 174.89-33.95 175.34-33.85L175.34-33.85Q175.49-31.75 175.54-29.55 175.59-27.35 175.59-24.35ZM197.58-1.7L197.58-1.7Q196.93-1.5 195.93-1.38 194.93-1.25 193.88-1.2L193.88-1.2Q194.13-9.25 193.68-18.4 193.23-27.55 192.13-35.3L192.13-35.3Q189.58-35.05 186.86-34.68 184.13-34.3 180.98-33.85L180.98-33.85Q180.78-34.7 180.68-35.55 180.58-36.4 180.63-37.1L180.63-37.1Q188.13-38.35 193.96-38.9 199.78-39.45 207.23-39.55L207.23-39.55Q207.38-39.2 207.46-38.75 207.53-38.3 207.58-37.75L207.58-37.75Q207.58-37.55 207.58-37.3 207.58-37.05 207.48-36.1L207.48-36.1Q204.48-36.05 201.83-35.95 199.18-35.85 196.58-35.65L196.58-35.65Q197.23-29.15 197.53-23.43 197.83-17.7 197.83-11.5L197.83-11.5Q197.83-9.35 197.78-6.95 197.73-4.55 197.58-1.7Z" opacity="1" transform="matrix(1,0,0,1,0,0)" fill="#ffffff" class="wordmark-text-0" data-fill-palette-color="quaternary" id="text-0"></path></svg></g></svg></g></svg></g></svg></g><g transform="matrix(1,0,0,1,40.713262274387006,0)"><svg viewBox="0 0 131.7319166783831 48.74080917100175" height="48.74080917100175" width="131.7319166783831"><g><svg xmlns="http://www.w3.org/2000/svg" xmlns:xlink="http://www.w3.org/1999/xlink" version="1.1" x="0" y="0" viewBox="1 32.5 100 37" enable-background="new 0 0 102 102" xml:space="preserve" height="48.74080917100175" width="131.7319166783831" class="icon-icon-0" data-fill-palette-color="quaternary" id="icon-0"><g fill="#ffffff" data-fill-palette-color="quaternary"><path d="M36.583 62.57C40.066 66.902 45.365 69.5 51 69.5c5.621 0 10.911-2.587 14.394-6.903C60.721 62.864 55.894 63 51 63 46.425 63 41.406 62.849 36.583 62.57z" fill="#ffffff" data-fill-palette-color="quaternary"></path><path d="M32.5 51c0 1.807 0.274 3.612 0.817 5.378C38.875 56.791 44.819 57 51 57c6.067 0 12.012-0.213 17.687-0.632C69.227 54.605 69.5 52.804 69.5 51c0-2.116-0.377-4.231-1.12-6.287-0.367-1.013-0.806-1.971-1.306-2.847C63.782 36.089 57.624 32.5 51 32.5c-6.611 0-12.764 3.579-16.059 9.34-0.509 0.891-0.955 1.86-1.324 2.881C32.876 46.773 32.5 48.886 32.5 51z" fill="#ffffff" data-fill-palette-color="quaternary"></path><path d="M101 51c0-5.727-15.548-8.547-30.872-9.747-0.584-0.046-1.168-0.09-1.751-0.131 0.558 0.978 1.025 2.008 1.413 3.08 0.546 0.043 1.083 0.088 1.613 0.135C88.744 45.859 98 49.1 98 51c0 0.536-1.767 2.326-9.128 4.078l0.876-4.268-8.33 5.68c-3.071 0.464-6.444 0.849-10.011 1.158-0.538 0.047-1.067 0.097-1.614 0.14C63.903 58.251 57.517 58.5 51 58.5c-7.013 0-13.281-0.266-18.79-0.702-0.546-0.043-1.083-0.089-1.614-0.135C13.257 56.141 4 52.9 4 51c0-0.536 1.767-2.326 9.127-4.077l-0.876 4.267 8.329-5.679c3.072-0.464 6.445-0.85 10.012-1.159 0.538-0.047 1.068-0.097 1.615-0.14 0.392-1.085 0.867-2.128 1.432-3.116-0.594 0.042-1.17 0.092-1.756 0.139-3.983 0.315-7.757 0.722-11.182 1.224L10.053 40.3l2.517 3.671C4.8 45.794 1 48.101 1 51c0 5.721 15.512 8.54 30.82 9.742 0.602 0.047 1.203 0.093 1.803 0.135C39.923 61.322 46.084 61.5 51 61.5c0 0 0 0 0 0 5.979 0 11.859-0.206 17.36-0.596 0.612-0.043 1.206-0.095 1.809-0.143 3.965-0.314 7.721-0.721 11.131-1.219l10.647 2.158-2.517-3.671C97.2 56.205 101 53.898 101 51z" fill="#ffffff" data-fill-palette-color="quaternary"></path></g></svg></g></svg></g><g></g></svg></g></svg></g></svg></g></svg></g><defs></defs></svg><rect width="342.85155851775386" height="342.85155851775386" fill="none" stroke="none" visibility="hidden"></rect></g></svg></g></svg>